PathFileType	3	(X/Y/Z)	D:\minhoCalibration\240510\subject5_KPNP\preferred\preferred08.trc
DataRate	CameraRate	NumFrames	NumMarkers	Units	OrigDataRate	OrigDataStartFrame	OrigNumFrames
200.0	200.0	21	10	mm	200.0	220	141	
Frame#	Time	Left_Ankle_Outer1			Left_Ankle_Inner1			Left_Knee_Outer1			Left_Knee_Inner1			Left_Wrist1			Right_Wrist1			Right_Knee_Inner1			Right_Knee_Outer1			Right_Ankle_Inner1			Right_Ankle_Outer1			
		X1	Y1	Z1	X2	Y2	Z2	X3	Y3	Z3	X4	Y4	Z4	X5	Y5	Z5	X6	Y6	Z6	X7	Y7	Z7	X8	Y8	Z8	X9	Y9	Z9	X10	Y10	Z10	
220	1.09	-390.94373	74.491814	-656.32501	-438.43115	85.401421	-638.8161	-279.3562	529.52954	-530.61975	-372.26306	515.25507	-512.99524	-262.311	1000.4684	-709.32812	-575.42395	1030.443	-795.25269	-652.26593	483.83905	-697.9162	-718.10791	533.78638	-741.49548	-506.67502	202.34109	-1036.024	-555.00934	266.40399	-1092.1185
221	1.095	-390.55411	74.388733	-656.383	-437.72324	85.735504	-639.18799	-277.36835	529.23224	-531.02533	-370.44211	515.0882	-512.58685	-259.05017	1002.072	-707.58148	-572.58398	1031.6443	-792.29248	-653.98822	488.12213	-679.76794	-720.5484	537.9209	-721.85291	-514.19135	211.25363	-1023.5902	-564.98871	275.30469	-1077.1078
222	1.1	-390.2984	74.42366	-656.4129	-437.34241	85.776604	-639.80548	-275.46402	528.8067	-531.42456	-368.21317	514.99878	-513.37964	-256.1777	1003.1503	-706.51172	-572.22668	1031.9019	-785.15479	-655.03864	492.59158	-661.33606	-723.28003	542.41504	-700.74841	-521.82263	220.47142	-1010.2933	-575.10046	284.2915	-1061.7903
223	1.105	-390.19901	74.425446	-656.37311	-437.18729	86.044739	-639.25104	-273.72479	528.39008	-532.02136	-366.34998	514.9375	-513.49689	-252.62933	1004.3248	-705.26184	-571.36456	1033.3926	-777.9353	-655.52618	497.10522	-642.73969	-724.31433	547.57086	-681.67072	-529.25232	229.7018	-996.21008	-584.70038	293.14731	-1045.8826
224	1.11	-390.19211	74.432976	-656.40417	-437.33624	86.126167	-639.04486	-271.95831	527.96753	-532.76843	-364.47012	514.79218	-513.94269	-250.83836	1004.7388	-705.19629	-568.24109	1035.8539	-773.41248	-656.55304	502.64172	-624.14404	-725.78809	553.42731	-661.49103	-536.43628	238.72939	-981.59503	-593.5683	301.97153	-1029.4875
225	1.115	-390.11182	74.513618	-656.39435	-437.09451	86.326691	-639.20508	-270.65643	527.55579	-533.92145	-362.56442	514.82489	-514.49005	-248.00163	1005.3127	-704.95197	-568.96588	1037.4756	-763.73779	-656.20679	507.94531	-605.73047	-727.03259	559.60345	-639.85498	-543.164	247.56071	-966.5119	-601.51917	310.66336	-1012.8187
226	1.12	-390.25418	74.4505	-656.37177	-437.10037	86.369431	-639.06891	-268.69012	527.30554	-535.09003	-361.01297	514.75635	-514.89734	-245.17123	1005.9133	-704.98822	-566.3587	1039.1652	-759.71143	-655.80518	513.43671	-587.60193	-728.18616	566.14038	-618.96594	-549.1582	256.49557	-951.00482	-608.99963	319.3566	-995.80988
227	1.125	-390.27185	74.510284	-656.45038	-436.97244	86.269432	-639.44958	-267.38193	526.97736	-536.30121	-359.04358	514.69287	-515.46747	-242.58264	1006.335	-705.47736	-566.57599	1042.3435	-749.09845	-655.68781	520.07898	-569.53687	-728.58252	573.45886	-598.33636	-554.88269	265.26425	-935.22321	-615.73236	328.25046	-978.68323
228	1.13	-390.26462	74.401161	-656.54114	-436.77548	86.547699	-639.36639	-265.19186	526.84064	-538.16431	-357.0184	514.67828	-516.2041	-240.17892	1006.3484	-706.1366	-565.24756	1044.3553	-743.23065	-654.97046	527.43652	-550.08331	-728.30682	581.18573	-577.65631	-560.33569	274.0271	-919.35095	-622.07404	337.32498	-961.44714
229	1.135	-390.64673	73.93029	-655.88519	-436.63229	86.638412	-639.4408	-263.6597	526.59216	-540.11066	-354.93246	514.40735	-516.85986	-237.75584	1006.3464	-706.97974	-564.07129	1047.2778	-735.70209	-653.89752	535.13446	-531.41766	-727.11603	589.66956	-557.35492	-565.49762	283.01859	-903.30536	-627.91046	346.59128	-944.03204
230	1.14	-390.31259	74.348022	-656.547	-436.44522	86.784248	-639.4198	-261.76965	526.54498	-541.76324	-352.65515	514.41394	-517.85211	-235.35893	1006.3343	-708.09241	-562.33148	1050.3398	-729.18378	-651.7666	542.81927	-512.42834	-725.57233	598.3598	-536.74707	-570.74377	291.97598	-887.00793	-633.39062	356.16425	-926.47473
231	1.145	-390.22107	74.453949	-656.66235	-436.31546	87.04245	-639.26605	-259.7818	526.33539	-543.95959	-350.46393	514.15198	-519.01428	-233.32843	1006.1928	-709.47162	-559.0965	1054.1512	-723.69232	-649.21863	551.80438	-493.05417	-723.65155	607.52863	-516.00378	-576.08508	301.03992	-870.56671	-638.62744	365.81573	-908.54767
232	1.15	-390.17606	74.512955	-656.74377	-436.17059	87.300667	-639.31647	-257.81021	526.20972	-546.30847	-348.09738	514.58282	-519.5567	-232.56886	1005.6135	-711.17749	-557.14862	1056.9719	-716.70135	-646.89386	560.89581	-474.70557	-721.00409	617.38373	-495.48871	-581.43213	310.4317	-854.15509	-643.89276	375.92184	-890.55621
233	1.155	-389.98941	74.668411	-657.0061	-435.97888	87.49826	-639.2088	-256.4313	526.19287	-548.60388	-345.5563	514.52325	-520.86682	-230.30299	1005.6499	-712.78351	-555.19482	1060.6368	-709.46381	-643.59143	570.40717	-455.72583	-717.80347	627.40265	-475.42392	-586.89911	319.86996	-837.47937	-649.17108	386.47409	-872.45996
234	1.16	-390.13904	74.846313	-656.70642	-435.65051	87.818672	-639.27722	-254.23973	526.16791	-551.46997	-343.3205	514.20642	-521.96881	-228.94461	1005.5153	-714.75604	-553.12347	1064.6422	-701.43237	-639.83185	580.24658	-436.90964	-713.91345	637.81342	-455.98309	-592.57159	329.84894	-820.90405	-654.56677	397.50113	-854.21027
235	1.165	-389.80429	75.083069	-657.3324	-435.7001	88.1045	-638.65002	-252.37447	526.19751	-554.08173	-340.7254	514.69727	-523.12408	-228.34834	1005.1428	-716.9104	-552.67847	1067.9648	-692.70264	-635.63873	590.50812	-418.15387	-709.84064	648.505	-436.36945	-598.8396	340.09424	-804.02563	-660.2146	408.92068	-835.84143
236	1.17	-389.75253	75.143517	-657.46478	-435.33182	88.402687	-639.23663	-250.97835	526.21411	-556.55786	-339.07605	514.72583	-523.93475	-227.29175	1005.2045	-719.10187	-550.39856	1071.6289	-684.62878	-630.9743	601.07898	-399.58676	-705.27014	659.94244	-416.52014	-604.28412	351.12152	-787.70465	-666.16736	420.85812	-817.33685
237	1.175	-389.49606	75.549416	-657.88837	-435.3775	88.893738	-638.86682	-249.24232	526.30182	-559.3689	-336.28497	515.30707	-525.36975	-226.74548	1005.2894	-721.31311	-547.95557	1075.9421	-676.80121	-625.86084	612.14954	-381.23581	-700.01685	671.62	-397.29578	-610.8255	362.3877	-770.97888	-672.26562	433.2338	-798.81012
238	1.18	-389.45715	75.893242	-658.11072	-435.1998	89.261795	-638.89331	-247.66013	526.45813	-562.07825	-334.74158	515.60822	-525.94806	-226.10268	1005.6939	-723.76031	-543.71667	1080.3467	-671.099	-620.53418	623.16821	-362.98053	-694.00763	683.80499	-377.64261	-617.33649	374.11877	-754.39209	-678.54834	446.14383	-780.3941
239	1.185	-389.71237	76.207039	-657.96393	-435.00598	89.684059	-638.6698	-246.43155	526.57318	-564.6076	-332.19434	515.95996	-527.30945	-225.97202	1005.9805	-726.19855	-541.25928	1083.5664	-663.6684	-614.49451	634.47626	-345.26413	-687.43201	695.57983	-359.40051	-624.19678	386.44717	-737.58063	-684.91766	459.42886	-761.79883
240	1.19	-388.92075	77.243965	-658.45081	-435.2323	90.300476	-637.80823	-245.20958	526.69458	-567.31305	-330.54971	516.50793	-527.30255	-225.8918	1006.2472	-728.9635	-538.15149	1086.9796	-656.71698	-608.17151	645.94275	-327.92169	-680.60315	708.35614	-340.68301	-631.14203	399.08856	-720.81451	-691.34534	473.36597	-743.20654
